<?xml version="1.0"?>
<svg width="480" height="250" xmlns="http://www.w3.org/2000/svg" xmlns:svg="http://www.w3.org/2000/svg" enable-background="new 0 0 640 480" version="1.1" xml:space="preserve">
 <linearGradient id="SVGID_1_" x1="0.01" x2="0.98" y1="0.01" y2="1">
  <stop offset="0" stop-color="#999"/>
  <stop offset="1" stop-color="#4D4D4D"/>
 </linearGradient>
 <linearGradient id="SVGID_2_" x1="1" x2="0.02" y1="0.68" y2="0.32">
  <stop offset="0" stop-color="#999"/>
  <stop offset="1" stop-color="#666"/>
 </linearGradient>
 <linearGradient id="SVGID_3_" x1="0.01" x2="1" y1="1.02" y2="-0.04">
  <stop offset="0" stop-color="#666"/>
  <stop offset="0.3" stop-color="#636363"/>
  <stop offset="0.56" stop-color="#585858"/>
  <stop offset="0.81" stop-color="#464646"/>
  <stop offset="1" stop-color="#333"/>
 </linearGradient>
 <linearGradient id="SVGID_4_" x1="0" x2="1" y1="0.5" y2="0.5">
  <stop offset="0" stop-color="#666"/>
  <stop offset="0" stop-color="#777"/>
  <stop offset="0.01" stop-color="#999"/>
  <stop offset="0.01" stop-color="#B5B5B5"/>
  <stop offset="0.02" stop-color="#CBCBCB"/>
  <stop offset="0.02" stop-color="#DADADA"/>
  <stop offset="0.03" stop-color="#E3E3E3"/>
  <stop offset="0.04" stop-color="#E6E6E6"/>
  <stop offset="0.05" stop-color="#D4D4D4"/>
  <stop offset="0.07" stop-color="#BEBEBE"/>
  <stop offset="0.09" stop-color="#ADADAD"/>
  <stop offset="0.12" stop-color="#A2A2A2"/>
  <stop offset="0.15" stop-color="#9B9B9B"/>
  <stop offset="0.26" stop-color="#999"/>
  <stop offset="0.94" stop-color="#666"/>
  <stop offset="0.95" stop-color="#7A7A7A"/>
  <stop offset="0.97" stop-color="#AFAFAF"/>
  <stop offset="0.98" stop-color="#E6E6E6"/>
  <stop offset="1" stop-color="#333"/>
 </linearGradient>
 <metadata>image/svg+xmlOpenclipartLaptop2013-07-09T10:44:02MacBook Pro -like laptop. Made with Adobe Illustrator.https://openclipart.org/detail/180140/laptop-by-willwill-180140willwillapplecomputerlaptotmacbook pro</metadata>
 <g class="layer">
  <title>Layer 1</title>
  <g id="svg_9">
   <path d="m80.82,239.71c-9.48,0 -17.19,3.35 -17.19,-6.14l0,-216.11c0,-9.48 7.71,-17.19 17.19,-17.19l316.27,0c9.48,0 17.19,7.71 17.19,17.19l0,216.11c0,9.49 -7.71,6.14 -17.19,6.14l-316.27,0z" fill="url(#SVGID_1_)" id="svg_1"/>
   <path d="m80.82,247.26c-7.54,0 -13.68,-6.14 -13.68,-13.68l0,-216.11c0,-7.55 6.14,-13.68 13.68,-13.68l316.27,0c7.54,0 13.68,6.13 13.68,13.68l0,216.11c0,7.54 -6.14,13.68 -13.68,13.68l-316.27,0z" fill="url(#SVGID_2_)" id="svg_2"/>
   <path d="m408.43,232.58c0,6.26 -5.08,11.34 -11.34,11.34l-316.27,0c-6.26,0 -11.34,-5.08 -11.34,-11.34l0,-216.11c0,-6.26 5.08,-11.34 11.34,-11.34l316.27,0c6.26,0 11.34,5.08 11.34,11.34l0,216.11z" id="svg_3"/>
   <path d="m476.2,242.44c0,4 -12.26,7.23 -16.94,7.23l-440.52,0c-4.68,0 -16.95,-3.23 -16.95,-7.23c0,-3.99 3.8,-7.23 8.48,-7.23l457.46,0c4.67,0 8.47,3.24 8.47,7.23z" fill="url(#SVGID_3_)" id="svg_4"/>
   <rect fill="url(#SVGID_4_)" height="14.46" id="svg_5" width="474.4" x="1.8" y="227.98"/>
   <rect fill="#808080" height="194.85" id="svg_6" width="321.91" x="78.04" y="16.18"/>
   <path d="m453.22,235.41c0,0.52 -0.79,0.95 -1.76,0.95l-8.44,0c-0.97,0 -1.75,-0.43 -1.75,-0.95c0,-0.53 0.78,-0.95 1.75,-0.95l8.44,0c0.97,0 1.76,0.42 1.76,0.95z" id="svg_7"/>
   <path d="m271.72,232.87l-65.43,0c-1.41,0 -2.55,-1.06 -2.55,-2.38l0,-2.38l70.53,0l0,2.38c0,1.31 -1.15,2.38 -2.55,2.38z" fill="#3E3D3D" id="svg_8"/>
  </g>
 </g>
</svg>